<?xml version="1.0" encoding="UTF-8"?>
<svg width="224.87" height="43.704" viewBox="0 0 224.866 43.704" xmlns="http://www.w3.org/2000/svg">
<g transform="translate(-118.13 -59)" fill="#0f6af9" data-name="Group 3560">
<text transform="translate(171 92)" font-family="ES-Build-SemiBold, ES Build" font-size="46" font-weight="600">
<tspan x="0" y="0">Soroban</tspan>
</text>
<path transform="translate(114.13 57)" d="M43.361,23.364,24.985,2.5c-.018-.02-.041-.034-.06-.053a1.463,1.463,0,0,0-.15-.134l-.054-.039a1.477,1.477,0,0,0-1.976.227L4.372,23.364c-.01.011-.012.025-.022.037a1.47,1.47,0,0,0-.248.418c-.008.02-.012.041-.019.061A1.467,1.467,0,0,0,4,24.348s0,.008,0,.012,0,.015,0,.023a1.476,1.476,0,0,0,.093.48c0,.013.007.027.012.04a1.483,1.483,0,0,0,.267.426.327.327,0,0,0,.02.031L22.772,45.226c.022.024.048.041.071.063a1.387,1.387,0,0,0,.135.118c.034.025.071.046.106.069a1.576,1.576,0,0,0,.15.084c.042.02.085.034.129.05s.07.031.108.042c.013,0,.026,0,.04,0a1.465,1.465,0,0,0,.33.045c.009,0,.018,0,.027,0l.018,0a1.506,1.506,0,0,0,.4-.066c.034-.01.066-.019.1-.032a1.471,1.471,0,0,0,.363-.191c.018-.013.032-.029.049-.043a1.512,1.512,0,0,0,.165-.145L43.336,25.36A1.489,1.489,0,0,0,43.361,23.364ZM23.14,41.236,8.9,25.839H27.376ZM8.789,22.86,23.134,6.575,27.4,22.86Zm29.48,2.98h-5.96a1.49,1.49,0,0,1,0-2.98h5.96a1.49,1.49,0,1,1,0,2.98Z"/>
</g>
</svg>
