<?xml version="1.0" encoding="UTF-8"?>
<svg width="683.84" height="683.8" viewBox="0 0 683.84 683.798" xmlns="http://www.w3.org/2000/svg">
<g transform="translate(-841.32 5412.1)" data-name="Group 3564">
<g transform="translate(-160.19 -110.59)" data-name="Group 3528">
<circle transform="translate(1028.7 -5272.9)" cx="314.78" cy="314.78" r="314.78" fill="#acf2f2" data-name="Ellipse 40"/>
<path transform="translate(1001.5 -5301.5)" d="m341.94 0c-188.53 0-341.94 153.37-341.94 341.9s153.41 341.9 341.94 341.9 341.9-153.35 341.9-341.9-153.37-341.9-341.9-341.9m0 646.48c-167.95 0-304.59-136.64-304.59-304.58s136.64-304.56 304.59-304.56 304.55 136.61 304.55 304.57-136.61 304.58-304.55 304.58" fill="#2ac1a3" data-name="Path 1446"/>
<path transform="translate(-1052.9 1044.8)" d="m2283.6-6206.1l59.715-22.339h87.235l64.77 11.008 19.771 33.464-7.507 356.68-46.2 29.323s-44.106 23.056-53.031 23.636-82.952 0-82.952 0l-31.137-23.636-10.66-59.121z" fill="#fff" data-name="Path 1447"/>
<g transform="translate(1208.7 -5195.1)">
<path transform="translate(-26.336 -7.41)" d="M268.833,7.41H53.275A26.944,26.944,0,0,0,26.336,34.372v420.14a26.958,26.958,0,0,0,26.939,26.961H268.833a26.944,26.944,0,0,0,26.939-26.961V34.372A26.944,26.944,0,0,0,268.833,7.41ZM142.946,29.386h36.217a7.646,7.646,0,1,1,0,15.291H142.946a7.646,7.646,0,0,1,0-15.291Zm18.109,432.1a22.893,22.893,0,1,1,22.893-22.893A22.88,22.88,0,0,1,161.055,461.487Zm103.865-63.6H57.185V60.572H264.919Z" fill="#2ac1a3" fill-rule="evenodd" data-name="Path 1430"/>
</g>
<g transform="translate(1254.7 -5018.2)" fill="#2ac1a3">
<path transform="translate(-2.502 -23.503)" d="M56.851,39.006,46.769,28.924a3.826,3.826,0,0,0-5.413,0L3.623,66.46a3.826,3.826,0,0,0,0,5.413L41.348,109.6a3.826,3.826,0,0,0,5.413,0L56.844,99.516a3.826,3.826,0,0,0,0-5.413L32.009,69.261,56.851,44.419a3.84,3.84,0,0,0,0-5.413Z" data-name="Path 1432"/>
<path transform="translate(54.153 -23.507)" d="M122.147,66.463,84.422,28.919a3.826,3.826,0,0,0-5.413,0L68.927,39a3.826,3.826,0,0,0,0,5.413L93.761,69.264,68.919,94.106a3.826,3.826,0,0,0,0,5.413L79,109.6a3.826,3.826,0,0,0,5.413,0l37.544-37.725a3.667,3.667,0,0,0,.19-5.413Z" data-name="Path 1433"/>
<path transform="translate(27.406 -25.5)" d="M81.658,25.5H69.519a4.073,4.073,0,0,0-3.735,2.612l-28.57,83.673a3.876,3.876,0,0,0,3.735,5.231h12.14a4.073,4.073,0,0,0,3.735-2.612L85.582,30.731A4.061,4.061,0,0,0,81.657,25.5Z" data-name="Path 1434"/>
</g>
</g>
</g>
</svg>
