<?xml version="1.0" encoding="UTF-8"?>
<svg width="683.85" height="683.81" viewBox="0 0 683.854 683.812" xmlns="http://www.w3.org/2000/svg">
<g transform="translate(-841.32 4553.1)" data-name="Group 3565">
<g transform="translate(-585.94 -109.07)" data-name="Group 3529">
<circle transform="translate(1454.4 -4415.4)" cx="314.78" cy="314.78" r="314.78" fill="#ffaadb" data-name="Ellipse 41"/>
<path transform="translate(1427.3 -4444)" d="m341.95 0c-188.54 0-341.95 153.37-341.95 341.91s153.41 341.91 341.95 341.91 341.91-153.36 341.91-341.91-153.37-341.91-341.91-341.91m0 646.49c-167.96 0-304.6-136.64-304.6-304.58s136.64-304.57 304.6-304.57 304.56 136.61 304.56 304.57-136.61 304.58-304.56 304.58" fill="#d86f8c" data-name="Path 1448"/>
<path transform="translate(-1289.4 1951)" d="m2873.9-6192.3l16.324-17.486 139.22-8.28 197.41 8.28 26.443 34.31-4.976 102.37v126.05l-21.468 17.255-113.72 7.572-7.975 40.688v32.4l-95.494 5-7.275-78.079-121.24-7.572-13.549-155.79z" fill="#fff" data-name="Path 1449"/>
<path transform="translate(1559.2 -4289.6)" d="M365.933,2H53.99A51.982,51.982,0,0,0,2,53.99V279.283a51.982,51.982,0,0,0,51.99,51.99h86.651v51.99h-34.66a17.33,17.33,0,1,0,0,34.66H313.943a17.33,17.33,0,0,0,0-34.66h-34.66v-51.99h86.651a51.982,51.982,0,0,0,51.99-51.99V53.99A51.982,51.982,0,0,0,365.933,2ZM36.66,53.99A17.32,17.32,0,0,1,53.99,36.66H365.933a17.335,17.335,0,0,1,17.33,17.33V209.962H36.66ZM244.622,383.264H175.3v-51.99h69.321ZM383.264,279.283a17.335,17.335,0,0,1-17.33,17.33H53.99a17.32,17.32,0,0,1-17.33-17.33v-34.66h346.6Z" fill="#d86f8c"/>
<g transform="translate(1686.2 -4206.4)" fill="#d86f8c">
<path transform="translate(-2.502 -23.503)" d="M56.852,39.006,46.77,28.924a3.826,3.826,0,0,0-5.413,0L3.623,66.461a3.826,3.826,0,0,0,0,5.413L41.349,109.6a3.826,3.826,0,0,0,5.413,0L56.845,99.517a3.826,3.826,0,0,0,0-5.413L32.01,69.262,56.852,44.419a3.84,3.84,0,0,0,0-5.413Z" data-name="Path 1432"/>
<path transform="translate(54.156 -23.507)" d="M122.148,66.464,84.423,28.919a3.827,3.827,0,0,0-5.413,0L68.927,39a3.826,3.826,0,0,0,0,5.413l24.835,24.85L68.919,94.107a3.826,3.826,0,0,0,0,5.413L79,109.6a3.826,3.826,0,0,0,5.413,0L121.96,71.877a3.667,3.667,0,0,0,.19-5.413Z" data-name="Path 1433"/>
<path transform="translate(27.407 -25.5)" d="M81.659,25.5H69.519a4.073,4.073,0,0,0-3.735,2.612l-28.57,83.675a3.876,3.876,0,0,0,3.735,5.231h12.14a4.073,4.073,0,0,0,3.735-2.612L85.583,30.731A4.061,4.061,0,0,0,81.658,25.5Z" data-name="Path 1434"/>
</g>
</g>
</g>
</svg>
