<?xml version="1.0" encoding="UTF-8"?>
<svg width="683.87" height="683.83" viewBox="0 0 683.867 683.826" xmlns="http://www.w3.org/2000/svg">
<g transform="translate(-841.32 7893.2)" data-name="Group 3561">
<ellipse transform="translate(868.46 -7864.6)" cx="314.79" cy="314.79" rx="314.79" ry="314.79" fill="#fcdaa5" data-name="Ellipse 35"/>
<path transform="translate(841.32 -7893.2)" d="m341.96 0c-188.54 0-341.96 153.37-341.96 341.91s153.42 341.91 341.96 341.91 341.91-153.36 341.91-341.91-153.37-341.91-341.91-341.91m0 646.5c-167.96 0-304.6-136.64-304.6-304.59s136.64-304.58 304.6-304.58 304.56 136.62 304.56 304.58-136.62 304.59-304.56 304.59" fill="#cbb583" data-name="Path 1438"/>
<path transform="translate(-1287.3 -815.02)" d="m2267.8-6816.8h89.134l29.476-35.453 52.962-11.848 57.1-13.914 88.375 13.914 37.434 21.719 13.977 25.582v38.258l11.279 115.07-11.279 32.008-70.755 34.461h-148.23l-60.342-34.461v-23.781l-89.134-8.227z" fill="#fff" data-name="Path 1439"/>
<g transform="translate(933.47 -7712.5)" fill="#cbb583">
<path transform="translate(.001 -13.531)" d="M279.966,13.532c-80.79,0-147.638,27.293-160.229,71.627l-90.766.017C13,85.176,0,100.052,0,116.019L.155,234.512c0,15.985,13.006,28.021,28.973,28.021H120.7c14.7,44.334,80.476,73.427,159.621,73.427,89.121,0,163.048-40.178,163.048-84.51V103.015c0-48.387-73.653-89.484-163.412-89.484ZM74.1,235.239l-.156-120.5h43.5c.035,29.562.052,91.4.087,119.459ZM279.949,44.34c81,0,132.693,34.705,132.693,58.379s-51.676,57.617-132.693,57.617c-76.911,0-132.675-26.739-132.675-56.7C147.291,73.868,198.968,44.34,279.949,44.34ZM413.816,251.43c0,29.562-53.773,56.8-133.486,56.8-79.749,0-131.03-27.241-132.812-56.8l.26-97.607c4.468,3.377,14.789,6.494,14.789,9.49v51.175a7.395,7.395,0,1,0,14.79,0v-43.8c14.772,4.018,14.772,7.568,29.562,10.46v48.112a7.395,7.395,0,0,0,14.79,0v-44.49c14.772,1.974,14.772,3.325,29.562,4.312v54.952a7.395,7.395,0,1,0,14.79,0V190.164c0,.225,9.3.45,14.062.45,5.247,0,15.5-.26,15.5-.52V244a7.395,7.395,0,1,0,14.79,0v-55.09c14.772-1.056,14.772-2.476,29.562-4.5v44.8a7.395,7.395,0,1,0,14.79,0V180.719c14.772-2.979,14.772-6.6,29.562-10.72v44.423a7.395,7.395,0,1,0,14.79,0l-.069-51.885c0-3.083,14.772-6.269,14.772-9.715Z" data-name="Path 1426"/>
<path transform="translate(140.98 21.757)" d="m139.34 109.93c54.292 0 98.3-19.275 98.3-43.053 0-23.8-44.005-43.07-98.3-43.07s-98.28 19.275-98.28 43.07c-0.017 23.778 44.005 43.053 98.28 43.053zm0-56.562c29.839 0 50.186 6.287 60.977 11.69a2.032 2.032 0 0 1 0 3.637c-10.806 5.386-31.138 11.672-60.977 11.672-29.822 0-50.151-6.287-60.96-11.672a2.032 2.032 0 0 1 0 -3.637c10.807-5.404 31.138-11.69 60.96-11.69z" data-name="Path 1427"/>
</g>
</g>
</svg>
