<?xml version="1.0" encoding="UTF-8"?>
<svg width="683.85" height="683.83" viewBox="0 0 683.854 683.827" xmlns="http://www.w3.org/2000/svg">
<g transform="translate(-841.32 6237)" data-name="Group 3563">
<path transform="translate(876.02 -6202.3)" d="m307.25 2.65c-167.96 0-304.6 136.6-304.6 304.56s136.64 304.6 304.6 304.6 304.56-136.66 304.56-304.6-136.61-304.56-304.56-304.56m0 503.82c-82.112 0-148.9-66.777-148.9-148.89 0-76.347 120.69-225.94 134.46-242.77l14.446-17.646 14.432 17.646c13.767 16.828 134.42 166.42 134.42 242.77 0 82.112-66.763 148.89-148.85 148.89" fill="#9ed9e3" data-name="Path 1442"/>
<path transform="translate(1055.4 -6059.2)" d="m16.346 214.49a111.54 111.54 0 1 0 223.08 0c0-47.2-70.78-148.38-111.51-200.91-40.746 52.571-111.57 153.74-111.57 200.91" fill="#f3f9f6" data-name="Path 1443"/>
<path transform="translate(841.32 -6237)" d="m341.95 0c-188.54 0-341.95 153.37-341.95 341.91s153.41 341.91 341.95 341.91 341.91-153.36 341.91-341.91c0-118.97-61.066-223.93-154.8-286.05a338.69 338.69 0 0 0 -187.11 -55.856m0 646.49c-167.96 0-304.6-136.64-304.6-304.59s136.64-304.57 304.6-304.57 304.56 136.61 304.56 304.57-136.61 304.59-304.56 304.59" fill="#4374b1" data-name="Path 1444"/>
<path transform="translate(1020.7 -6114.5)" d="m162.6 9.355-14.446 17.645c-13.77 16.843-134.45 166.42-134.45 242.78 0 82.1 66.791 148.88 148.9 148.88 82.083 0 148.85-66.777 148.85-148.88 0-76.361-120.65-225.94-134.42-242.78zm0 371.97a111.68 111.68 0 0 1 -111.57 -111.54c0-47.173 70.822-148.34 111.57-200.91 40.732 52.528 111.51 153.71 111.51 200.91a111.66 111.66 0 0 1 -111.51 111.54" fill="#4374b1" data-name="Path 1445"/>
<rect transform="translate(841.32 -6237)" width="683.84" height="683.83" fill="none" data-name="Rectangle 1336"/>
</g>
</svg>
