<?xml version="1.0" encoding="UTF-8"?>
<svg width="683.84" height="683.8" viewBox="0 0 683.84 683.798" xmlns="http://www.w3.org/2000/svg">
<g transform="translate(-841.34 3694.1)" data-name="Group 3566">
<g transform="translate(-341.91 -107.52)" data-name="Group 3530">
<circle transform="translate(1210.4 -3557.9)" cx="314.78" cy="314.78" r="314.78" fill="#a8abf5" data-name="Ellipse 42"/>
<path transform="translate(1183.2 -3586.5)" d="m341.94 0c-188.53 0-341.94 153.37-341.94 341.9s153.41 341.9 341.94 341.9 341.9-153.35 341.9-341.9-153.37-341.9-341.9-341.9m0 646.48c-167.95 0-304.59-136.64-304.59-304.58s136.64-304.56 304.59-304.56 304.55 136.61 304.55 304.57-136.61 304.58-304.55 304.58" fill="#565cb7" data-name="Path 1450"/>
<path transform="translate(-2084 2782.3)" d="m3485.4-6099.2v-104.84l17.662-14.877 98.823-4.685 101.01 4.685 74.643 81.286 10.565 214.31-10.565 79.253-47.483 11.772h-226.99z" fill="#fff" data-name="Path 1451"/>
<circle transform="translate(1278.8 -3294.7)" cx="137.36" cy="137.36" r="137.36" fill="#a8abf5" data-name="Ellipse 43"/>
<circle transform="translate(1318.9 -3248.9)" cx="97.294" cy="97.294" r="97.294" fill="#fff" data-name="Ellipse 44"/>
<path transform="translate(1291.1 -3459.8)" d="M419.738,100.109,330.207,10.577A14.91,14.91,0,0,0,319.612,6.25H140.549A44.777,44.777,0,0,0,95.783,51.016v89.531a14.922,14.922,0,1,0,29.844,0V51.016a14.918,14.918,0,0,1,14.922-14.922H304.69V80.859a44.777,44.777,0,0,0,44.766,44.766h44.766V379.3A14.9,14.9,0,0,1,379.3,394.219H259.924a14.922,14.922,0,0,0,0,29.844H379.3A44.777,44.777,0,0,0,424.065,379.3V110.7a14.91,14.91,0,0,0-4.327-10.595ZM334.533,80.86V57.134l38.648,38.648H349.455A14.918,14.918,0,0,1,334.533,80.86ZM125.626,185.313a119.406,119.406,0,1,0,84.4,34.973,119.315,119.315,0,0,0-84.4-34.973Zm0,208.907a89.539,89.539,0,1,1,63.307-26.225A89.541,89.541,0,0,1,125.626,394.22Zm40.439-129.971a14.906,14.906,0,0,1,0,21.19l-59.688,59.688a14.983,14.983,0,1,1-21.19-21.19l59.688-59.688a14.906,14.906,0,0,1,21.19,0ZM80.859,274.844a14.92,14.92,0,1,1,14.922,14.922,14.915,14.915,0,0,1-14.922-14.922Zm89.532,59.688a14.9,14.9,0,1,1-4.365-10.557,14.915,14.915,0,0,1,4.365,10.557ZM274.844,110.7a14.9,14.9,0,0,1-14.922,14.922H170.391a14.922,14.922,0,0,1,0-29.844h89.532A14.9,14.9,0,0,1,274.844,110.7Zm89.531,74.61a14.9,14.9,0,0,1-14.922,14.922H259.923a14.922,14.922,0,0,1,0-29.844h89.531a14.9,14.9,0,0,1,14.922,14.922Zm0,74.61a14.9,14.9,0,0,1-14.922,14.922H289.766a14.922,14.922,0,1,1,0-29.844h59.688a14.9,14.9,0,0,1,14.922,14.922Zm0,74.61a14.9,14.9,0,0,1-14.922,14.922H289.766a14.922,14.922,0,1,1,0-29.844h59.688a14.9,14.9,0,0,1,14.922,14.922Z" fill="#565cb7"/>
</g>
</g>
</svg>
