<?xml version="1.0" encoding="UTF-8"?>
<svg width="683.85" height="683.81" viewBox="0 0 683.854 683.813" xmlns="http://www.w3.org/2000/svg">
<g transform="translate(-841.32 7067.5)" data-name="Group 3562">
<g data-name="Group 3544">
<ellipse transform="translate(868.46 -7038.9)" cx="314.78" cy="314.78" rx="314.78" ry="314.78" fill="#ffc77b" data-name="Ellipse 37"/>
<path transform="translate(841.32 -7067.5)" d="m341.95 0c-188.54 0-341.95 153.37-341.95 341.91s153.41 341.91 341.95 341.91 341.91-153.36 341.91-341.91-153.37-341.91-341.91-341.91m0 646.49c-167.96 0-304.6-136.64-304.6-304.59s136.64-304.57 304.6-304.57 304.56 136.61 304.56 304.57-136.61 304.58-304.56 304.58" fill="#f29676" data-name="Path 1440"/>
<path transform="translate(-1858.1 -25.094)" d="m2871.3-6837.5l41.924-48.132h260.18l37.268 48.132v261.02l-15.483 43.478h-281.97l-41.924-28.185z" fill="#fff" data-name="Path 1441"/>
<path transform="translate(973.84 -6933.5)" d="M335.667,20H83.133A63.319,63.319,0,0,0,20,83.134V335.668A63.319,63.319,0,0,0,83.133,398.8H335.667A63.319,63.319,0,0,0,398.8,335.668V83.134A63.319,63.319,0,0,0,335.667,20Zm37.88,315.668a37.985,37.985,0,0,1-37.88,37.88H222.027V285.161a12.627,12.627,0,1,0-25.253,0v88.387H83.133a37.985,37.985,0,0,1-37.88-37.88V83.134a37.985,37.985,0,0,1,37.88-37.88H335.667a37.985,37.985,0,0,1,37.88,37.88ZM331.253,123.526c-32.824-25.87-76.4-40.4-121.854-40.4s-89.031,14.526-121.854,40.4c-5.056,3.8-6.313,11.369-2.515,17.041l50.507,75.76c1.9,3.157,5.672,5.056,9.47,5.672,3.8.641,7.571-1.258,10.111-3.8,13.884-13.884,32.824-21.455,54.3-21.455,21.455,0,40.4,7.571,54.3,21.455a12.21,12.21,0,0,0,8.8,3.823h1.258a14.944,14.944,0,0,0,9.47-5.672l50.507-75.76c3.157-5.7,2.54-12.627-2.515-17.066Zm-61.234,66.934c-13.884-10.111-30.309-15.783-47.992-18.3V146.267a12.627,12.627,0,1,0-25.253,0v26.511a99.447,99.447,0,0,0-47.992,18.3L112.8,137.413c27.152-18.915,60.618-29.027,96.6-29.027S278.848,118.5,306,136.8Z" fill="#f29676" stroke="#f29676" stroke-width="1.5"/>
</g>
</g>
</svg>
