<?xml version="1.0" encoding="UTF-8"?>
<svg viewBox="0 0 31.541 24.09" xmlns="http://www.w3.org/2000/svg">
<g transform="translate(4227.5 -468.85)" fill="#f8fcff" data-name="Group 1926">
<path transform="translate(-4229.4 455.15)" d="m6.348 25.59c-1.906-2-4.954 1.048-2.953 2.953 2.477 2.573 4.954 5.24 7.526 7.717 1.144 1.048 2 1.048 3.049 0l18.2-18.1c1.906-2-1.048-5.049-3.049-3.049l-16.582 16.576-6.193-6.1z" fill-rule="evenodd"/>
<path transform="translate(-4229.4 455.15)" d="M12.481,37.8a3.072,3.072,0,0,1-2.067-.983L10.4,36.8c-1.95-1.878-3.865-3.885-5.717-5.826-.6-.625-1.213-1.271-1.818-1.9a2.646,2.646,0,0,1-.677-2.968,3.045,3.045,0,0,1,2.734-1.921,2.685,2.685,0,0,1,1.969.887l.01.011,5.634,5.547L28.587,14.579a2.79,2.79,0,0,1,1.991-.873,3.034,3.034,0,0,1,2.716,1.871,2.789,2.789,0,0,1-.586,3.1l-.014.014-18.2,18.1A2.876,2.876,0,0,1,12.481,37.8Zm-1.047-2.083a1.794,1.794,0,0,0,1.047.583,1.533,1.533,0,0,0,.958-.567l18.19-18.1a1.294,1.294,0,0,0,.286-1.465,1.561,1.561,0,0,0-1.337-.962,1.309,1.309,0,0,0-.931.433l-17.1,17.1L5.7,26.006a1.154,1.154,0,0,0-.778-.32,1.557,1.557,0,0,0-1.341.978A1.147,1.147,0,0,0,3.912,28l.023.023c.611.635,1.232,1.286,1.833,1.915C7.608,31.866,9.51,33.859,11.435,35.714Z" data-name="np_checkmark_3345769_000000 - Outline"/>
</g>
</svg>
